<?xml version="1.0" encoding="utf-8"?><svg version="1.1" id="Layer_1" xmlns="http://www.w3.org/2000/svg" xmlns:xlink="http://www.w3.org/1999/xlink" x="0px" y="0px" viewBox="0 0 98.21 122.88" style="enable-background:new 0 0 98.21 122.88" xml:space="preserve"><style type="text/css"><![CDATA[
	.st0{fill-rule:evenodd;clip-rule:evenodd;fill:#72BD39;}
	.st1{fill:#3F3316;}
]]></style><g><path class="st1" d="M68.53,28.85l-0.07,7.33c0.56-2.46,1.8-4.66,3.52-6.38c2.37-2.37,5.66-3.84,9.28-3.84 c3.62,0,6.9,1.47,9.28,3.84c2.37,2.38,3.84,5.66,3.84,9.28c0,2.76,0.06,4.78,0.12,6.7c0.34,11.1,0.6,19.5-8.24,31.23l-0.16,0.2 c-1.19,1.56-2.48,2.96-3.85,4.2c-1.46,1.31-3.05,2.49-4.77,3.53c-1.69,1.01-3.45,1.85-5.26,2.52c-1.44,0.53-2.93,0.96-4.46,1.29 l-2.4,30.86c-0.14,1.86-1.69,3.28-3.53,3.28v0H38.9c-1.82,0-3.33-1.38-3.52-3.15l-2.02-13.4c-0.2-0.03-0.4-0.06-0.6-0.09l0,0.01 c-0.74-0.13-1.52-0.3-2.32-0.5c-0.75-0.19-1.5-0.41-2.25-0.65c-9.56-3.13-15.89-11.77-19.74-21.97 C3.48,69.92,2.66,53.85,4.47,44.44c0.99-5.16,4.25-9.26,8.12-11.26c1.94-1,4.06-1.49,6.17-1.37c2.18,0.13,4.32,0.92,6.22,2.48 c3.32,2.73,5.83,7.9,6.14,16.2l0,0.05c0.05,1.44,0.02,3.26,0,5.32c-0.08,6.14-0.19,14.61,1.45,19.77 c-0.21-18.95-0.81-38.01-0.45-56.95c0-0.17,0.02-0.33,0.04-0.49c0.9-6.78,4.73-11.38,9.6-13.81c2.62-1.3,5.55-1.96,8.48-1.96 c2.93,0,5.85,0.65,8.47,1.95c4.91,2.44,8.77,7.08,9.66,13.92c0.01,0.12,0.02,0.23,0.03,0.35l0.18,5.88L68.53,28.85L68.53,28.85z M61.42,34.82l0.09-10.13l-0.17-5.67c-0.58-4.1-2.87-6.87-5.76-8.31c-1.66-0.82-3.5-1.23-5.35-1.23c-1.83,0-3.68,0.41-5.33,1.24 c-2.88,1.44-5.16,4.19-5.74,8.28l-0.11,5.63l0.65,58.89c0.03,0.33,0.01,0.67-0.07,1.01c-0.41,1.91-2.28,3.13-4.19,2.73 c-0.68-0.15-1.34-0.34-1.99-0.58c-0.7-0.26-1.32-0.55-1.86-0.88c-7.87-4.71-7.67-19.98-7.54-30.02c0.02-1.94,0.05-3.66,0-5.01 l0-0.03c-0.22-6-1.67-9.44-3.56-11c-0.67-0.55-1.41-0.83-2.15-0.87c-0.82-0.05-1.68,0.16-2.52,0.59c-2.08,1.07-3.85,3.36-4.41,6.3 c-1.62,8.42-0.86,22.9,3.66,34.87c3.15,8.36,8.11,15.37,15.31,17.73c0.57,0.19,1.17,0.36,1.78,0.51c0.56,0.14,1.18,0.27,1.85,0.39 l0,0.01c0.31,0.06,0.62,0.08,0.92,0.09c0.26,0,0.54-0.01,0.83-0.05l0.13-0.02c1.93-0.29,3.74,1.04,4.03,2.98l2.03,13.51h16.6 l2.37-30.42l0.01,0c0.13-1.8,1.62-3.24,3.46-3.27c0.13,0,0.29-0.01,0.46-0.03l0.32-0.04l0.13-0.03c1.56-0.28,3.05-0.68,4.47-1.2 c1.43-0.53,2.79-1.17,4.07-1.94c1.29-0.78,2.52-1.69,3.67-2.72c1.09-0.98,2.08-2.05,2.97-3.21l0.13-0.19 c7.35-9.75,7.13-17.09,6.83-26.78c-0.07-2.36-0.15-4.84-0.15-6.89c0-1.67-0.68-3.18-1.77-4.27c-1.09-1.09-2.6-1.77-4.27-1.77 c-1.67,0-3.17,0.68-4.27,1.77c-1.09,1.09-1.77,2.6-1.77,4.27c0,1.79,0.01,2.52,0.03,3.29c0.14,7.52,0.31,17.06-4.24,23.11 c-0.49,0.65-1,1.22-1.52,1.71c-0.58,0.53-1.18,0.99-1.82,1.37l0,0c-0.33,0.19-0.61,0.35-0.85,0.47l-0.01-0.01 c-0.29,0.14-0.58,0.26-0.87,0.37c-0.41,0.16-0.85,0.24-1.31,0.24c-1.95-0.01-3.52-1.61-3.5-3.56L61.42,34.82L61.42,34.82z"/><path class="st0" d="M65,28.82l-0.05,6.03l-0.3,31.26c0.44-0.17,0.85-0.36,1.22-0.58c0.84-0.5,1.61-1.22,2.32-2.15 c4.47-5.94,3.5-17.05,3.5-24.29c0-5.29,4.29-9.58,9.58-9.58c5.29,0,9.58,4.29,9.58,9.58c0,14.06,2.36,22.84-7.4,35.8 c-2.17,2.88-4.77,5.21-7.78,7.02c-2.97,1.78-6.22,2.97-9.75,3.6c-0.49,0.08-0.98,0.13-1.47,0.14l-2.63,33.7H38.9l-2.49-16.53 c-0.98,0.14-2,0.14-3.03-0.05c-1.41-0.25-2.78-0.59-4.1-1.03C9.53,95.26,4.96,60.59,7.94,45.11c2.24-11.67,18.83-16.23,19.65,5.52 c0.26,7.79-1.65,27.7,5.84,32.15c0.77,0.46,1.69,0.8,2.76,1.03l-0.61-54.99l-0.05-4.2l0.11-5.88c2.2-17.04,27.01-17.03,29.23,0.01 l0.17,5.88L65,28.82L65,28.82z"/><path class="st1" d="M30.5,113.29c-0.83-0.71-0.92-1.96-0.2-2.79c0.71-0.83,1.96-0.92,2.79-0.2l4.24,3.66 c0.83,0.71,0.92,1.96,0.2,2.79c-0.71,0.83-1.96,0.92-2.79,0.2L30.5,113.29L30.5,113.29z M58.39,4.56 c-0.23,1.07-1.29,1.75-2.36,1.52c-1.07-0.23-1.75-1.29-1.52-2.36l0.47-2.16c0.23-1.07,1.29-1.75,2.36-1.52 c1.07,0.23,1.75,1.29,1.52,2.36L58.39,4.56L58.39,4.56z M73.55,74c-0.71-0.61-0.79-1.68-0.19-2.39s1.68-0.79,2.39-0.19l3.75,3.22 c0.71,0.61,0.79,1.68,0.19,2.39c-0.61,0.71-1.68,0.79-2.39,0.19L73.55,74L73.55,74z M78.44,51.87c-0.71-0.61-0.8-1.68-0.19-2.39 c0.61-0.71,1.68-0.79,2.39-0.19l3.75,3.23c0.71,0.61,0.79,1.68,0.19,2.39c-0.61,0.71-1.68,0.79-2.39,0.19L78.44,51.87L78.44,51.87z M81.21,60.73c0.61-0.71,1.68-0.79,2.39-0.19c0.71,0.61,0.79,1.68,0.19,2.39l-3.22,3.75c-0.61,0.71-1.68,0.79-2.39,0.19 c-0.71-0.61-0.79-1.68-0.19-2.39L81.21,60.73L81.21,60.73z M75.6,35.93c-0.59-0.73-0.49-1.8,0.24-2.39 c0.73-0.59,1.8-0.49,2.39,0.24l3.71,4.53c0.59,0.73,0.49,1.8-0.24,2.39c-0.73,0.59-1.8,0.49-2.39-0.24L75.6,35.93L75.6,35.93z M23.16,82.98c0.71-0.61,1.78-0.53,2.39,0.19c0.61,0.71,0.53,1.78-0.19,2.39l-3.75,3.23c-0.71,0.61-1.78,0.53-2.39-0.19 c-0.61-0.71-0.53-1.78,0.19-2.39L23.16,82.98L23.16,82.98z M18.27,60.84c0.71-0.61,1.78-0.52,2.39,0.19s0.53,1.78-0.19,2.39 l-3.75,3.23c-0.71,0.61-1.78,0.53-2.39-0.19c-0.61-0.71-0.53-1.78,0.19-2.39L18.27,60.84L18.27,60.84z M95.22,52.34 c0.61-0.71,1.68-0.8,2.39-0.19s0.79,1.68,0.19,2.39l-3.22,3.75c-0.61,0.71-1.68,0.79-2.39,0.19c-0.71-0.61-0.8-1.68-0.19-2.39 L95.22,52.34L95.22,52.34z M95.1,38.33c0.61-0.71,1.68-0.79,2.39-0.19c0.71,0.61,0.79,1.68,0.19,2.39l-3.23,3.75 c-0.61,0.71-1.68,0.79-2.39,0.19c-0.71-0.61-0.79-1.68-0.19-2.39L95.1,38.33L95.1,38.33z M90.24,24.29 c0.61-0.71,1.68-0.79,2.39-0.19c0.71,0.61,0.79,1.68,0.19,2.39l-2.52,2.94c-0.61,0.71-1.68,0.79-2.39,0.19 c-0.71-0.61-0.79-1.68-0.19-2.39L90.24,24.29L90.24,24.29z M8.59,50.02c-0.61-0.71-0.53-1.78,0.19-2.39s1.78-0.53,2.39,0.19 l3.23,3.75c0.61,0.71,0.53,1.78-0.19,2.39c-0.71,0.61-1.78,0.53-2.39-0.19L8.59,50.02L8.59,50.02z M23.01,46.61 c0.59-0.73,1.67-0.83,2.39-0.24c0.73,0.59,0.83,1.67,0.24,2.39l-3.71,4.53c-0.59,0.73-1.67,0.83-2.39,0.24 c-0.73-0.59-0.83-1.67-0.24-2.39L23.01,46.61L23.01,46.61z M49.47,39.9c0.67,0.66,0.68,1.73,0.02,2.4 c-0.66,0.67-1.73,0.68-2.4,0.02l-6.73-6.65c-0.67-0.66-0.68-1.73-0.02-2.4c0.66-0.67,1.73-0.68,2.4-0.02L49.47,39.9L49.47,39.9z M54.47,70.67c0.81,0.47,1.09,1.5,0.63,2.31c-0.47,0.81-1.5,1.09-2.31,0.62l-4.32-2.48c-0.81-0.47-1.09-1.5-0.62-2.31 c0.47-0.81,1.5-1.09,2.31-0.63L54.47,70.67L54.47,70.67z M46.23,20.43c0.79,0.51,1.02,1.56,0.51,2.34s-1.56,1.02-2.34,0.51 l-5.27-3.38c-0.79-0.51-1.02-1.56-0.51-2.34c0.51-0.79,1.56-1.02,2.34-0.51L46.23,20.43L46.23,20.43z M53.81,26.59 c-0.79,0.51-1.84,0.28-2.34-0.51c-0.51-0.79-0.28-1.84,0.51-2.34l5.27-3.38c0.79-0.51,1.84-0.28,2.34,0.51s0.28,1.84-0.51,2.34 L53.81,26.59L53.81,26.59z M54.47,89.63c0.81,0.47,1.09,1.5,0.63,2.31c-0.47,0.81-1.5,1.09-2.31,0.62l-4.32-2.48 c-0.81-0.46-1.09-1.5-0.62-2.31c0.47-0.81,1.5-1.09,2.31-0.62L54.47,89.63L54.47,89.63z M39.53,54.19 c-0.61-0.71-0.53-1.78,0.19-2.39s1.78-0.53,2.39,0.19l3.23,3.75c0.61,0.71,0.53,1.78-0.19,2.39c-0.71,0.61-1.78,0.53-2.39-0.19 L39.53,54.19L39.53,54.19z M56.99,50.78c0.59-0.73,1.67-0.83,2.39-0.24c0.73,0.59,0.83,1.67,0.24,2.39l-3.71,4.53 c-0.59,0.73-1.67,0.83-2.39,0.24c-0.73-0.59-0.83-1.67-0.24-2.39L56.99,50.78L56.99,50.78z M0.41,64.03 c-0.61-0.71-0.53-1.78,0.19-2.39c0.71-0.61,1.78-0.53,2.39,0.19l3.23,3.75c0.61,0.71,0.53,1.78-0.19,2.39 c-0.71,0.61-1.78,0.53-2.39-0.19L0.41,64.03L0.41,64.03z M0.41,50.02c-0.61-0.71-0.53-1.78,0.19-2.39s1.78-0.53,2.39,0.19 l3.23,3.75c0.61,0.71,0.53,1.78-0.19,2.39s-1.78,0.53-2.39-0.19L0.41,50.02L0.41,50.02z M5.96,35.98 c-0.61-0.71-0.53-1.78,0.19-2.39s1.78-0.53,2.39,0.19l2.52,2.94c0.61,0.71,0.53,1.78-0.19,2.39c-0.71,0.61-1.78,0.53-2.39-0.19 L5.96,35.98L5.96,35.98z M28.81,11.59c-0.83-0.71-0.92-1.96-0.2-2.79c0.71-0.83,1.96-0.92,2.79-0.2l4.24,3.66 c0.83,0.71,0.92,1.96,0.2,2.79s-1.96,0.92-2.79,0.2L28.81,11.59L28.81,11.59z M68.98,93.69c0.83-0.71,2.08-0.62,2.79,0.2 c0.71,0.83,0.62,2.07-0.2,2.79l-4.24,3.66c-0.83,0.71-2.07,0.62-2.79-0.2c-0.71-0.83-0.62-2.08,0.2-2.79L68.98,93.69L68.98,93.69z M67.85,110.3c0.83-0.71,2.08-0.62,2.79,0.2c0.71,0.83,0.62,2.07-0.2,2.79l-4.24,3.66c-0.83,0.71-2.08,0.62-2.79-0.2 c-0.71-0.83-0.63-2.08,0.2-2.79L67.85,110.3L67.85,110.3z"/></g></svg>