<?xml version="1.0" encoding="utf-8"?><svg version="1.1" id="Layer_1" xmlns="http://www.w3.org/2000/svg" xmlns:xlink="http://www.w3.org/1999/xlink" x="0px" y="0px" viewBox="0 0 105.77 122.88" style="enable-background:new 0 0 105.77 122.88" xml:space="preserve"><style type="text/css">.st0{fill:#D61D1D;} .st1{fill:#EECEA9;} .st2{fill:#BF0400;}</style><g><path class="st0" d="M52.3,17.11c4.83,0.17,9.63,0.57,14.28,1.81c13.07,3.5,24.81,12,32.11,24.64c7.3,12.64,8.78,27.06,5.28,40.13 c-3.5,13.07-12,24.81-24.64,32.11c-12.65,7.3-27.06,8.78-40.13,5.28c-13.07-3.5-24.81-12-32.11-24.64 c-7.3-12.65-8.78-27.06-5.28-40.13c1.16-4.34,3.04-8.44,5.11-12.47c4.43-8.63,6.97-5.9,2.4-13.76L2.35,19.73l11.69-1.75l4.06-10.53 L29.12,9.4L35.67,0l5.38,10.53C46.17,19.23,43.4,16.79,52.3,17.11L52.3,17.11L52.3,17.11z"/><path class="st1" d="M29.34,28.05l48.09,83.29c11.23-6.66,18.77-17.19,21.91-28.91c3.18-11.88,1.84-24.99-4.81-36.49 c-6.64-11.51-17.31-19.22-29.2-22.41C53.62,20.4,40.72,21.66,29.34,28.05L29.34,28.05L29.34,28.05z"/><path class="st2" d="M71.93,86.31c-0.61-1.08-0.98-2.25-0.67-3.5c0.47-1.93,2.89-3.19,4.64-3.65c2.47-0.66,5.82-0.13,6.91,2.5 c0.28,0.69,0.39,1.45,0.39,2.27c0.22,2.78-1.98,6.77-4.79,7.14C75.46,91.44,73.19,88.55,71.93,86.31L71.93,86.31L71.93,86.31z"/><path class="st2" d="M79.75,67.85c-0.61-1.08-0.98-2.25-0.67-3.5c0.47-1.93,2.89-3.19,4.64-3.65c2.47-0.66,5.82-0.13,6.91,2.5 c0.28,0.69,0.39,1.45,0.39,2.27c0.22,2.78-1.98,6.77-4.79,7.14C83.28,72.98,81.01,70.1,79.75,67.85L79.75,67.85L79.75,67.85z"/><path class="st2" d="M66.83,45.49c-0.61-1.08-0.98-2.25-0.68-3.51c0.47-1.93,2.89-3.19,4.64-3.65c2.47-0.66,5.82-0.13,6.91,2.5 c0.28,0.69,0.39,1.45,0.39,2.27c0.22,2.78-1.98,6.78-4.79,7.14C70.37,50.61,68.1,47.73,66.83,45.49L66.83,45.49L66.83,45.49z"/><path class="st2" d="M46.14,42.21c-0.61-1.08-0.98-2.25-0.68-3.51c0.47-1.93,2.89-3.19,4.64-3.65c2.47-0.66,5.82-0.13,6.91,2.5 c0.28,0.69,0.39,1.45,0.39,2.27c0.22,2.78-1.98,6.77-4.79,7.14C49.67,47.33,47.4,44.45,46.14,42.21L46.14,42.21L46.14,42.21z"/><path class="st2" d="M58.95,64.96c-0.61-1.08-0.98-2.25-0.68-3.51c0.47-1.93,2.89-3.19,4.64-3.65c2.47-0.66,5.82-0.13,6.91,2.5 c0.28,0.69,0.39,1.45,0.39,2.26c0.22,2.78-1.98,6.77-4.79,7.14C62.48,70.08,60.21,67.2,58.95,64.96L58.95,64.96L58.95,64.96z"/></g></svg>